{
  "accessors": [
    {
      "bufferView": 2,
      "componentType": 5126,
      "count": 16,
      "max": [
        84.32703399658203,
        67.37798309326172,
        7.3058319091796875
      ],
      "min": [
        -84.32703399658203,
        -67.37798309326172,
        0.0
      ],
      "type": "VEC3"
    },
    {
      "bufferView": 2,
      "byteOffset": 192,
      "componentType": 5126,
      "count": 16,
      "max": [
        0.331499308347702,
        0.10906624794006348,
        0.9999160766601563
      ],
      "min": [
        -0.08505718410015106,
        -0.34567388892173767,
        0.8778483867645264
      ],
      "type": "VEC3"
    },
    {
      "bufferView": 3,
      "componentType": 5126,
      "count": 16,
      "max": [
        0.9999639391899109,
        0.09067027270793915,
        0.09018666297197342,
        1.0
      ],
      "min": [
        0.9429410696029663,
        -0.042985230684280396,
        -0.320376455783844,
        1.0
      ],
      "type": "VEC4"
    },
    {
      "bufferView": 1,
      "componentType": 5126,
      "count": 16,
      "max": [
        0.9905682802200317,
        0.885817289352417
      ],
      "min": [
        0.02482769265770912,
        0.11418262869119644
      ],
      "type": "VEC2"
    },
    {
      "bufferView": 1,
      "byteOffset": 128,
      "componentType": 5126,
      "count": 16,
      "max": [
        0.9905682802200317,
        0.885817289352417
      ],
      "min": [
        0.02482769265770912,
        0.11418262869119644
      ],
      "type": "VEC2"
    },
    {
      "bufferView": 0,
      "componentType": 5125,
      "count": 51,
      "type": "SCALAR"
    }
  ],
  "asset": {
    "extras": {
      "author": "TraianDumbrava (https://sketchfab.com/TraianDumbrava)",
      "license": "CC-BY-4.0 (http://creativecommons.org/licenses/by/4.0/)",
      "source": "https://sketchfab.com/3d-models/adventure-map-553b41ef1c0e489a999844139b78f6d9",
      "title": "Adventure Map"
    },
    "generator": "Sketchfab-12.67.0",
    "version": "2.0"
  },
  "bufferViews": [
    {
      "buffer": 0,
      "byteLength": 204,
      "name": "floatBufferViews",
      "target": 34963
    },
    {
      "buffer": 0,
      "byteLength": 256,
      "byteOffset": 204,
      "byteStride": 8,
      "name": "floatBufferViews",
      "target": 34962
    },
    {
      "buffer": 0,
      "byteLength": 384,
      "byteOffset": 460,
      "byteStride": 12,
      "name": "floatBufferViews",
      "target": 34962
    },
    {
      "buffer": 0,
      "byteLength": 256,
      "byteOffset": 844,
      "byteStride": 16,
      "name": "floatBufferViews",
      "target": 34962
    }
  ],
  "buffers": [
    {
      "byteLength": 1100,
      "uri": "scene.bin"
    }
  ],
  "images": [
    {
      "uri": "textures/01_-_Map_baseColor.png"
    },
    {
      "uri": "textures/01_-_Map_metallicRoughness.png"
    },
    {
      "uri": "textures/01_-_Map_normal.jpeg"
    }
  ],
  "materials": [
    {
      "alphaMode": "BLEND",
      "doubleSided": true,
      "name": "01_-_Map",
      "normalTexture": {
        "index": 2
      },
      "pbrMetallicRoughness": {
        "baseColorTexture": {
          "index": 0
        },
        "metallicRoughnessTexture": {
          "index": 1
        }
      }
    }
  ],
  "meshes": [
    {
      "name": "map001_01 - Map_0",
      "primitives": [
        {
          "attributes": {
            "NORMAL": 1,
            "POSITION": 0,
            "TANGENT": 2,
            "TEXCOORD_0": 3,
            "TEXCOORD_1": 4
          },
          "indices": 5,
          "material": 0,
          "mode": 4
        }
      ]
    }
  ],
  "nodes": [
    {
      "children": [
        1
      ],
      "matrix": [
        1.0,
        -6.9285914727751e-19,
        -1.6081076675322542e-16,
        0.0,
        2.465190328815662e-32,
        0.999990701675415,
        -0.004308496601879375,
        0.0,
        1.6081226229577292e-16,
        0.004308496601879375,
        0.999990701675415,
        0.0,
        -5.874342895798024e-16,
        3.6372220516204843,
        -3.6528398990631095,
        1.0
      ],
      "name": "Sketchfab_model"
    },
    {
      "children": [
        2
      ],
      "matrix": [
        1.0,
        0.0,
        0.0,
        0.0,
        0.0,
        0.0,
        1.0,
        0.0,
        0.0,
        -1.0,
        0.0,
        0.0,
        0.0,
        0.0,
        0.0,
        1.0
      ],
      "name": "Map_01.FBX"
    },
    {
      "children": [
        3
      ],
      "name": "RootNode"
    },
    {
      "children": [
        4
      ],
      "matrix": [
        1.0384539365768433,
        8.589889633657362e-25,
        -7.737084750658594e-09,
        0.0,
        -7.737084750658594e-09,
        2.305830940800487e-16,
        -1.0384539365768433,
        0.0,
        8.271806125530277e-25,
        1.0,
        2.220446049250313e-16,
        0.0,
        0.0,
        0.0,
        0.0,
        1.0
      ],
      "name": "map001"
    },
    {
      "mesh": 0,
      "name": "map001_01 - Map_0"
    }
  ],
  "samplers": [
    {
      "magFilter": 9729,
      "minFilter": 9987,
      "wrapS": 10497,
      "wrapT": 10497
    }
  ],
  "scene": 0,
  "scenes": [
    {
      "name": "Sketchfab_Scene",
      "nodes": [
        0
      ]
    }
  ],
  "textures": [
    {
      "sampler": 0,
      "source": 0
    },
    {
      "sampler": 0,
      "source": 1
    },
    {
      "sampler": 0,
      "source": 2
    }
  ]
}
