{
  "accessors": [
    {
      "bufferView": 2,
      "componentType": 5126,
      "count": 57858,
      "max": [
        0.8649910092353821,
        0.992913007736206,
        0.25850600004196167
      ],
      "min": [
        -0.8663769960403442,
        -0.9906129837036133,
        -0.257872998714447
      ],
      "type": "VEC3"
    },
    {
      "bufferView": 2,
      "byteOffset": 694296,
      "componentType": 5126,
      "count": 57858,
      "max": [
        0.9998429417610168,
        0.9999780654907227,
        0.9999955892562866
      ],
      "min": [
        -0.9999756813049316,
        -0.9999815225601196,
        -0.9999961853027344
      ],
      "type": "VEC3"
    },
    {
      "bufferView": 3,
      "componentType": 5126,
      "count": 57858,
      "max": [
        0.999992847442627,
        0.9999511241912842,
        0.9999998211860657,
        1.0
      ],
      "min": [
        -0.9999917149543762,
        -0.9999924898147583,
        -0.9999476075172424,
        -1.0
      ],
      "type": "VEC4"
    },
    {
      "bufferView": 1,
      "componentType": 5126,
      "count": 57858,
      "max": [
        0.9948909878730774,
        0.9999169707298279
      ],
      "min": [
        8.199999865610152e-05,
        2.0265579223632813e-06
      ],
      "type": "VEC2"
    },
    {
      "bufferView": 1,
      "byteOffset": 462864,
      "componentType": 5126,
      "count": 57858,
      "max": [
        0.9948909878730774,
        0.9999169707298279
      ],
      "min": [
        8.199999865610152e-05,
        2.0265579223632813e-06
      ],
      "type": "VEC2"
    },
    {
      "bufferView": 1,
      "byteOffset": 925728,
      "componentType": 5126,
      "count": 57858,
      "max": [
        0.9948909878730774,
        0.9999169707298279
      ],
      "min": [
        8.199999865610152e-05,
        2.0265579223632813e-06
      ],
      "type": "VEC2"
    },
    {
      "bufferView": 1,
      "byteOffset": 1388592,
      "componentType": 5126,
      "count": 57858,
      "max": [
        0.9948909878730774,
        0.9999169707298279
      ],
      "min": [
        8.199999865610152e-05,
        2.0265579223632813e-06
      ],
      "type": "VEC2"
    },
    {
      "bufferView": 0,
      "componentType": 5125,
      "count": 282042,
      "type": "SCALAR"
    }
  ],
  "asset": {
    "extras": {
      "author": "ebblender (https://sketchfab.com/ebblender)",
      "license": "CC-BY-4.0 (http://creativecommons.org/licenses/by/4.0/)",
      "source": "https://sketchfab.com/3d-models/ethereal-aegis-65adef0399df440f9fdb10f2c5c0c6c8",
      "title": "Ethereal Aegis"
    },
    "generator": "Sketchfab-16.73.0",
    "version": "2.0"
  },
  "bufferViews": [
    {
      "buffer": 0,
      "byteLength": 1128168,
      "name": "floatBufferViews",
      "target": 34963
    },
    {
      "buffer": 0,
      "byteLength": 1851456,
      "byteOffset": 1128168,
      "byteStride": 8,
      "name": "floatBufferViews",
      "target": 34962
    },
    {
      "buffer": 0,
      "byteLength": 1388592,
      "byteOffset": 2979624,
      "byteStride": 12,
      "name": "floatBufferViews",
      "target": 34962
    },
    {
      "buffer": 0,
      "byteLength": 925728,
      "byteOffset": 4368216,
      "byteStride": 16,
      "name": "floatBufferViews",
      "target": 34962
    }
  ],
  "buffers": [
    {
      "byteLength": 5293944,
      "uri": "scene.bin"
    }
  ],
  "images": [
    {
      "uri": "textures/material_0_baseColor.jpeg"
    },
    {
      "uri": "textures/material_0_metallicRoughness.png"
    },
    {
      "uri": "textures/material_0_normal.jpeg"
    }
  ],
  "materials": [
    {
      "doubleSided": true,
      "name": "material_0",
      "normalTexture": {
        "index": 2
      },
      "pbrMetallicRoughness": {
        "baseColorTexture": {
          "index": 0
        },
        "metallicRoughnessTexture": {
          "index": 1
        }
      }
    }
  ],
  "meshes": [
    {
      "name": "Object_0",
      "primitives": [
        {
          "attributes": {
            "NORMAL": 1,
            "POSITION": 0,
            "TANGENT": 2,
            "TEXCOORD_0": 3,
            "TEXCOORD_1": 4,
            "TEXCOORD_2": 5,
            "TEXCOORD_3": 6
          },
          "indices": 7,
          "material": 0,
          "mode": 4
        }
      ]
    }
  ],
  "nodes": [
    {
      "children": [
        1
      ],
      "matrix": [
        1.0,
        0.0,
        0.0,
        0.0,
        0.0,
        2.220446049250313e-16,
        -1.0,
        0.0,
        0.0,
        1.0,
        2.220446049250313e-16,
        0.0,
        0.0,
        0.0,
        0.0,
        1.0
      ],
      "name": "Sketchfab_model"
    },
    {
      "children": [
        2
      ],
      "name": "root"
    },
    {
      "children": [
        3
      ],
      "matrix": [
        1.0,
        0.0,
        0.0,
        0.0,
        0.0,
        2.220446049250313e-16,
        1.0,
        0.0,
        0.0,
        -1.0,
        2.220446049250313e-16,
        0.0,
        0.0,
        0.0,
        0.0,
        1.0
      ],
      "name": "GLTF_SceneRootNode"
    },
    {
      "children": [
        4
      ],
      "name": "_0"
    },
    {
      "mesh": 0,
      "name": "Object_4"
    }
  ],
  "samplers": [
    {
      "magFilter": 9729,
      "minFilter": 9987,
      "wrapS": 10497,
      "wrapT": 10497
    }
  ],
  "scene": 0,
  "scenes": [
    {
      "name": "Sketchfab_Scene",
      "nodes": [
        0
      ]
    }
  ],
  "textures": [
    {
      "sampler": 0,
      "source": 0
    },
    {
      "sampler": 0,
      "source": 1
    },
    {
      "sampler": 0,
      "source": 2
    }
  ]
}
