{
  "accessors": [
    {
      "bufferView": 2,
      "componentType": 5126,
      "count": 65532,
      "max": [
        7.685259819030762,
        9.768595695495605,
        33.54852294921875
      ],
      "min": [
        -7.4062581062316895,
        -13.083481788635254,
        3.731660842895508
      ],
      "type": "VEC3"
    },
    {
      "bufferView": 2,
      "byteOffset": 786384,
      "componentType": 5126,
      "count": 65532,
      "max": [
        0.9999908804893494,
        0.9999997019767761,
        0.9999486804008484
      ],
      "min": [
        -1.0,
        -0.9999681115150452,
        -1.0
      ],
      "type": "VEC3"
    },
    {
      "bufferView": 1,
      "componentType": 5126,
      "count": 65532,
      "max": [
        0.9998160004615784,
        0.999206006526947
      ],
      "min": [
        6.0999998822808266e-05,
        0.5001829862594604
      ],
      "type": "VEC2"
    },
    {
      "bufferView": 0,
      "componentType": 5125,
      "count": 300723,
      "type": "SCALAR"
    },
    {
      "bufferView": 2,
      "byteOffset": 1572768,
      "componentType": 5126,
      "count": 65532,
      "max": [
        7.685259819030762,
        9.769035339355469,
        33.54852294921875
      ],
      "min": [
        -7.406254768371582,
        -13.083481788635254,
        3.7316598892211914
      ],
      "type": "VEC3"
    },
    {
      "bufferView": 2,
      "byteOffset": 2359152,
      "componentType": 5126,
      "count": 65532,
      "max": [
        0.9999998807907104,
        0.9999998807907104,
        0.9999973177909851
      ],
      "min": [
        -0.9999982118606567,
        -0.9998592734336853,
        -1.0
      ],
      "type": "VEC3"
    },
    {
      "bufferView": 1,
      "byteOffset": 524256,
      "componentType": 5126,
      "count": 65532,
      "max": [
        0.49981701374053955,
        0.9995729923248291
      ],
      "min": [
        6.0999998822808266e-05,
        0.5001829862594604
      ],
      "type": "VEC2"
    },
    {
      "bufferView": 0,
      "byteOffset": 1202892,
      "componentType": 5125,
      "count": 262491,
      "type": "SCALAR"
    },
    {
      "bufferView": 2,
      "byteOffset": 3145536,
      "componentType": 5126,
      "count": 9928,
      "max": [
        7.685251712799072,
        6.3009748458862305,
        23.284873962402344
      ],
      "min": [
        -7.4062581062316895,
        -13.083481788635254,
        3.731663703918457
      ],
      "type": "VEC3"
    },
    {
      "bufferView": 2,
      "byteOffset": 3264672,
      "componentType": 5126,
      "count": 9928,
      "max": [
        0.9999991655349731,
        0.9752114415168762,
        0.9999475479125977
      ],
      "min": [
        -0.999732494354248,
        -0.9999996423721313,
        -1.0
      ],
      "type": "VEC3"
    },
    {
      "bufferView": 1,
      "byteOffset": 1048512,
      "componentType": 5126,
      "count": 9928,
      "max": [
        0.49981701374053955,
        0.9999390244483948
      ],
      "min": [
        6.0999998822808266e-05,
        0.5001829862594604
      ],
      "type": "VEC2"
    },
    {
      "bufferView": 0,
      "byteOffset": 2252856,
      "componentType": 5125,
      "count": 36786,
      "type": "SCALAR"
    }
  ],
  "asset": {
    "extras": {
      "author": "amcgi (https://sketchfab.com/amcgi)",
      "license": "CC-BY-4.0 (http://creativecommons.org/licenses/by/4.0/)",
      "source": "https://sketchfab.com/3d-models/harde-de-cerfs-ecoutant-le-rapproche-paris-d85c74fe79f64b91b86597a9442b055e",
      "title": "Harde de cerfs écoutant le rapproché (Paris)"
    },
    "generator": "Sketchfab-16.56.0",
    "version": "2.0"
  },
  "bufferViews": [
    {
      "buffer": 0,
      "byteLength": 2400000,
      "name": "floatBufferViews",
      "target": 34963
    },
    {
      "buffer": 0,
      "byteLength": 1127936,
      "byteOffset": 2400000,
      "byteStride": 8,
      "name": "floatBufferViews",
      "target": 34962
    },
    {
      "buffer": 0,
      "byteLength": 3383808,
      "byteOffset": 3527936,
      "byteStride": 12,
      "name": "floatBufferViews",
      "target": 34962
    }
  ],
  "buffers": [
    {
      "byteLength": 6911744,
      "uri": "scene.bin"
    }
  ],
  "extensionsUsed": [
    "KHR_materials_specular"
  ],
  "images": [
    {
      "uri": "textures/model_Material_u1_v1_baseColor.jpeg"
    }
  ],
  "materials": [
    {
      "doubleSided": true,
      "extensions": {
        "KHR_materials_specular": {
          "specularColorFactor": [
            1.0,
            1.0,
            1.0
          ],
          "specularFactor": 0.0
        }
      },
      "name": "model_Material_u1_v1",
      "pbrMetallicRoughness": {
        "baseColorTexture": {
          "index": 0
        },
        "metallicFactor": 0.0,
        "roughnessFactor": 0.0
      }
    }
  ],
  "meshes": [
    {
      "name": "Object_0",
      "primitives": [
        {
          "attributes": {
            "NORMAL": 1,
            "POSITION": 0,
            "TEXCOORD_0": 2
          },
          "indices": 3,
          "material": 0,
          "mode": 4
        }
      ]
    },
    {
      "name": "Object_1",
      "primitives": [
        {
          "attributes": {
            "NORMAL": 5,
            "POSITION": 4,
            "TEXCOORD_0": 6
          },
          "indices": 7,
          "material": 0,
          "mode": 4
        }
      ]
    },
    {
      "name": "Object_2",
      "primitives": [
        {
          "attributes": {
            "NORMAL": 9,
            "POSITION": 8,
            "TEXCOORD_0": 10
          },
          "indices": 11,
          "material": 0,
          "mode": 4
        }
      ]
    }
  ],
  "nodes": [
    {
      "children": [
        1
      ],
      "matrix": [
        1.0,
        0.0,
        0.0,
        0.0,
        0.0,
        2.220446049250313e-16,
        -1.0,
        0.0,
        0.0,
        1.0,
        2.220446049250313e-16,
        0.0,
        0.0,
        0.0,
        0.0,
        1.0
      ],
      "name": "Sketchfab_model"
    },
    {
      "children": [
        2,
        3,
        4
      ],
      "name": "model.obj.cleaner.materialmerger.gles"
    },
    {
      "mesh": 0,
      "name": "Object_2"
    },
    {
      "mesh": 1,
      "name": "Object_3"
    },
    {
      "mesh": 2,
      "name": "Object_4"
    }
  ],
  "samplers": [
    {
      "magFilter": 9729,
      "minFilter": 9987,
      "wrapS": 10497,
      "wrapT": 10497
    }
  ],
  "scene": 0,
  "scenes": [
    {
      "name": "Sketchfab_Scene",
      "nodes": [
        0
      ]
    }
  ],
  "textures": [
    {
      "sampler": 0,
      "source": 0
    }
  ]
}
